<svg viewBox="0 0 1200 60" width="1200" height="60" xmlns="http://www.w3.org/2000/svg" role="img" aria-label="">
  <defs>
    <linearGradient id="gDiv" x1="0" y1="0" x2="1" y2="0">
      <stop offset="0" stop-color="#8b5cf6"/>
      <stop offset="0.5" stop-color="#22d3ee"/>
      <stop offset="1" stop-color="#ec4899"/>
    </linearGradient>
    <style>
      @keyframes flow { to { stroke-dashoffset: -64; } }
      .flow { stroke-dasharray: 2 14; animation: flow 2s linear infinite; stroke-linecap: round; }
    </style>
  </defs>
  <path d="M 0 30 Q 37.5 8 75 30 T 150 30 T 225 30 T 300 30 T 375 30 T 450 30 T 525 30 T 600 30 T 675 30 T 750 30 T 825 30 T 900 30 T 975 30 T 1050 30 T 1125 30 T 1200 30"
        fill="none" stroke="url(#gDiv)" stroke-width="2.5" opacity="0.75"/>
  <path class="flow" d="M 0 30 Q 37.5 52 75 30 T 150 30 T 225 30 T 300 30 T 375 30 T 450 30 T 525 30 T 600 30 T 675 30 T 750 30 T 825 30 T 900 30 T 975 30 T 1050 30 T 1125 30 T 1200 30"
        fill="none" stroke="#67e8f9" stroke-width="2" opacity="0.4"/>
  <circle cx="187.5" cy="19" r="3" fill="#a78bfa" opacity="0.85"/>
  <circle cx="600" cy="19" r="3" fill="#67e8f9" opacity="0.85"/>
  <circle cx="1012.5" cy="19" r="3" fill="#f472b6" opacity="0.85"/>
</svg>
